<svg width="55" height="53" viewBox="0 0 55 53" fill="none" xmlns="http://www.w3.org/2000/svg">
<mask id="mask0_328_660" style="mask-type:luminance" maskUnits="userSpaceOnUse" x="0" y="0" width="55" height="53">
<path d="M0 0.240601H55V52.9936H0V0.240601Z" fill="white"/>
</mask>
<g mask="url(#mask0_328_660)">
<path fill-rule="evenodd" clip-rule="evenodd" d="M23.5651 8.67827C20.3598 10.28 15.5272 12.6973 12.3219 14.3032C9.64918 15.6386 8.00708 18.1066 8.00708 20.7817V32.0358C8.00708 34.7066 9.64918 37.1747 12.3219 38.5101C15.5272 40.116 20.3598 42.5333 23.5651 44.1392C26.2378 45.4747 29.527 45.4747 32.1947 44.1392C35.405 42.5333 40.2376 40.116 43.4429 38.5101C46.1156 37.1747 47.7577 34.7066 47.7577 32.0358V20.7817C47.7577 18.1066 46.1156 15.6386 43.4429 14.3032C40.2376 12.6973 35.405 10.28 32.1947 8.67827C29.527 7.33861 26.2378 7.33861 23.5651 8.67827ZM25.5573 11.6619C26.9972 10.9434 28.7675 10.9434 30.2075 11.6619C33.4177 13.2678 38.2503 15.6851 41.4556 17.291C42.8955 18.0094 43.7831 19.3406 43.7831 20.7817V32.0358C43.7831 33.4768 42.8955 34.8038 41.4556 35.5265C38.2503 37.1324 33.4177 39.5497 30.2075 41.1556C28.7675 41.874 26.9972 41.874 25.5573 41.1556C22.3471 39.5497 17.5145 37.1324 14.3092 35.5265C12.8693 34.8038 11.9816 33.4768 11.9816 32.0358V20.7817C11.9816 19.3406 12.8693 18.0094 14.3092 17.291C17.5145 15.6851 22.3471 13.2678 25.5573 11.6619ZM27.8799 20.0084C23.8067 20.0084 20.4979 22.8736 20.4979 26.4066C20.4979 29.9396 23.8067 32.8091 27.8799 32.8091C31.958 32.8091 35.2669 29.9396 35.2669 26.4066C35.2669 22.8736 31.958 20.0084 27.8799 20.0084ZM27.8799 23.4568C29.7637 23.4568 31.2874 24.7796 31.2874 26.4066C31.2874 28.0379 29.7637 29.3607 27.8799 29.3607C26.0011 29.3607 24.4774 28.0379 24.4774 26.4066C24.4774 24.7796 26.0011 23.4568 27.8799 23.4568Z" fill="#E0E0E0"/>
</g>
</svg>
