<svg width="54" height="44" viewBox="0 0 54 44" fill="none" xmlns="http://www.w3.org/2000/svg">
<mask id="mask0_328_628" style="mask-type:luminance" maskUnits="userSpaceOnUse" x="0" y="0" width="54" height="44">
<path d="M0 0.990051H53.2504V43.1584H0V0.990051Z" fill="white"/>
</mask>
<g mask="url(#mask0_328_628)">
<path d="M28.0512 29.1639L29.2554 26.366L30.4555 29.1639H28.0512ZM32.8765 29.739L30.1911 23.4832L30.1869 23.4717C30.1743 23.4331 30.1492 23.4022 30.1324 23.3713C30.1198 23.3482 30.1072 23.325 30.0946 23.3057C30.0736 23.2826 30.0527 23.2555 30.0275 23.2324C30.0107 23.2092 29.9897 23.1861 29.9687 23.1706C29.9478 23.1513 29.9226 23.1282 29.8974 23.1128C29.8722 23.0935 29.8471 23.0703 29.8177 23.051C29.7925 23.0394 29.7673 23.024 29.7422 23.0124C29.7128 22.9931 29.675 22.9777 29.6415 22.9622L29.6289 22.9545C29.6037 22.9507 29.5785 22.9468 29.5533 22.9352C29.5198 22.9275 29.4904 22.9159 29.4526 22.9082C29.4191 22.9044 29.3813 22.9005 29.3561 22.8966C29.3184 22.8966 29.289 22.8928 29.2554 22.8928C29.2177 22.8928 29.1925 22.8966 29.1505 22.8966C29.1128 22.9005 29.0876 22.9005 29.0582 22.9082C29.0247 22.9159 28.9869 22.9275 28.9491 22.9391C28.924 22.9468 28.903 22.9507 28.8778 22.9545L28.8652 22.9622C28.8358 22.9777 28.7981 22.9931 28.7687 23.0124C28.7393 23.024 28.7184 23.0394 28.6932 23.051C28.6722 23.0664 28.6428 23.0896 28.6177 23.1089C28.5883 23.1282 28.5631 23.1475 28.5421 23.1668C28.5169 23.1861 28.5044 23.2054 28.4834 23.2285C28.4582 23.2555 28.4414 23.2826 28.4204 23.3096C28.4037 23.325 28.3953 23.3482 28.3827 23.3713C28.3617 23.4022 28.3407 23.4369 28.3239 23.4717L28.3197 23.4832L25.6343 29.739V29.7428L24.2791 32.8958C24.0651 33.3782 24.3084 33.9262 24.8203 34.1307C25.3322 34.3314 25.9281 34.1075 26.1421 33.6252C26.1504 33.6136 26.1546 33.6059 26.1546 33.5943L27.2498 31.0511H31.2653L32.3604 33.5943C32.5576 34.0844 33.1409 34.3275 33.6612 34.1423C34.1815 33.957 34.4458 33.4129 34.2486 32.9266C34.2444 32.9151 34.2402 32.9073 34.2318 32.8958L32.8765 29.739ZM39.9592 33.2508C39.9676 33.7371 39.804 34.2117 39.5019 34.6054C39.4599 34.6594 39.4264 34.7173 39.397 34.7752C38.604 36.1838 35.6207 38.3218 33.3632 39.7921C33.8164 38.1713 34.0388 36.809 34.0556 36.7202C34.1017 36.4501 34.0178 36.1761 33.8248 35.9677C33.6318 35.7631 33.3507 35.6396 33.0569 35.6358H21.065C19.651 35.6358 18.5013 34.5668 18.4971 33.2508V23.7302C18.5013 22.4104 19.6468 21.3414 21.065 21.3375H37.3955C38.8096 21.3414 39.9592 22.4104 39.9592 23.7302V33.2508ZM13.8899 21.8161C12.5934 22.5146 11.1122 22.8619 9.61429 22.8195H9.59751C9.03525 22.8195 8.58629 22.3949 8.58629 21.8778C8.58629 21.3568 9.03525 20.9362 9.59751 20.9362H9.61429C10.5038 20.9555 11.3934 20.805 12.22 20.4962C11.5444 19.7514 11.0073 18.8985 10.6423 17.9801C10.4451 17.4938 10.701 16.9497 11.2213 16.7606C11.7416 16.5753 12.3291 16.8146 12.5305 17.3008C12.8284 18.0804 13.2941 18.7943 13.8899 19.4041C14.7165 18.4702 15.2284 17.3356 15.3711 16.1354H9.59751C9.03525 16.1354 8.58629 15.7147 8.58629 15.1937C8.58629 14.6727 9.03525 14.2521 9.59751 14.2521H12.7654V12.6042C12.7654 12.0794 13.2144 11.6587 13.7767 11.6587C14.3347 11.6587 14.7837 12.0794 14.7837 12.6042V14.2521H17.9474C18.5055 14.2521 18.9586 14.6727 18.9586 15.1937C18.9586 15.7147 18.5055 16.1354 17.9474 16.1354H17.4019C17.2551 17.7292 16.6047 19.2497 15.5389 20.504C16.1935 20.7664 16.8984 20.9092 17.6117 20.9323C17.125 21.4417 16.7851 22.0592 16.6173 22.7268C15.648 22.5995 14.7207 22.2869 13.8899 21.8161ZM37.3955 19.4543H26.4987V12.4344C26.4945 10.0726 24.4427 8.15845 21.9126 8.15845H5.582C3.05605 8.15845 1.00424 10.0726 1.00005 12.4344V21.9511C0.995853 22.8002 1.26439 23.626 1.7763 24.3284C3.39173 27.2228 10.8395 31.5103 10.9192 31.5566C11.0787 31.6454 11.2633 31.6917 11.4479 31.6956C12.0018 31.6994 12.4507 31.2826 12.4549 30.7655C12.4591 30.6382 12.434 30.5185 12.3836 30.4027C11.8423 29.0405 11.4227 27.6434 11.1332 26.2194H16.4788V33.2508C16.483 35.6088 18.5348 37.5191 21.065 37.5191H31.8443C31.5548 38.9392 31.1352 40.3363 30.5981 41.6986C30.3841 42.1771 30.6317 42.7212 31.1394 42.918C31.2653 42.9682 31.3996 42.9914 31.5296 42.9914C31.7142 42.9914 31.8989 42.9412 32.0583 42.8524C32.138 42.8061 39.5858 38.5224 41.2012 35.6242C41.7131 34.9218 41.9817 34.096 41.9775 33.2508V23.7302C41.9733 21.3684 39.9215 19.4581 37.3955 19.4543Z" fill="#E0E0E0"/>
</g>
</svg>
