<svg width="55" height="48" viewBox="0 0 55 48" fill="none" xmlns="http://www.w3.org/2000/svg">
<mask id="mask0_328_727" style="mask-type:luminance" maskUnits="userSpaceOnUse" x="18" y="6" width="37" height="30">
<path d="M18.1636 6.68048H54.8989V35.8848H18.1636V6.68048Z" fill="white"/>
</mask>
<g mask="url(#mask0_328_727)">
</g>
<path d="M37.125 37C33.7361 37 30.3681 36.1667 27.0208 34.5C23.6736 32.8333 20.6667 30.6667 18 28C15.3333 25.3333 13.1667 22.3264 11.5 18.9792C9.83333 15.6319 9 12.2639 9 8.875C9 8.34722 9.18056 7.90278 9.54167 7.54167C9.90278 7.18056 10.3472 7 10.875 7H16.7083C17.0972 7 17.4375 7.13194 17.7292 7.39583C18.0208 7.65972 18.2083 8.01389 18.2917 8.45833L19.4167 13.7083C19.4722 14.0972 19.4653 14.4514 19.3958 14.7708C19.3264 15.0903 19.1806 15.3611 18.9583 15.5833L14.7917 19.7917C16.3472 22.375 18.0903 24.625 20.0208 26.5417C21.9514 28.4583 24.1389 30.0833 26.5833 31.4167L30.5417 27.3333C30.8194 27.0278 31.1389 26.8125 31.5 26.6875C31.8611 26.5625 32.2222 26.5417 32.5833 26.625L37.5417 27.7083C37.9583 27.7917 38.3056 28 38.5833 28.3333C38.8611 28.6667 39 29.0556 39 29.5V35.125C39 35.6528 38.8194 36.0972 38.4583 36.4583C38.0972 36.8194 37.6528 37 37.125 37ZM13.5417 17.5L16.9167 14.0833L15.9583 9.5H11.5C11.5 10.5833 11.6667 11.7708 12 13.0625C12.3333 14.3542 12.8472 15.8333 13.5417 17.5ZM28.9167 32.625C30.0556 33.1528 31.2917 33.5833 32.625 33.9167C33.9583 34.25 35.25 34.4444 36.5 34.5V30.0417L32.2083 29.1667L28.9167 32.625Z" fill="#6C6C6C"/>
</svg>
