<svg width="76" height="50" viewBox="0 0 76 50" fill="none" xmlns="http://www.w3.org/2000/svg">
<mask id="mask0_328_564" style="mask-type:luminance" maskUnits="userSpaceOnUse" x="0" y="0" width="76" height="50">
<path d="M0 0H75.7977V49.427H0V0Z" fill="white"/>
</mask>
<g mask="url(#mask0_328_564)">
<path fill-rule="evenodd" clip-rule="evenodd" d="M21.5603 0C21.5143 0 21.4636 0.00781072 21.4129 0.0117157C21.2701 0.0195267 21.1273 0.0546735 20.9937 0.105441L0.870706 7.30669C0.340912 7.49414 0 7.93153 0 8.40797C0 8.8844 0.340912 9.32179 0.870706 9.50924L7.20521 11.7743C7.18217 11.8485 7.17757 11.9266 7.18217 12.0086V19.1942C7.18217 19.5965 7.42634 19.9792 7.82253 20.1979C8.38458 20.5103 8.94662 20.8071 9.51327 21.0844C10.0799 21.3616 10.642 21.6077 11.2132 21.8459C11.7799 22.0802 12.3465 22.3028 12.9178 22.498C13.489 22.7011 14.0649 22.8769 14.6408 23.037C15.212 23.1971 15.7833 23.3377 16.3591 23.4587C16.9304 23.5759 17.5063 23.6735 18.0867 23.7594C18.6626 23.8375 19.2385 23.8961 19.8143 23.9313C20.3948 23.9742 20.9753 23.9977 21.5557 23.9977C22.1316 23.9977 22.7075 23.9742 23.2833 23.9313C23.8638 23.8961 24.4443 23.8375 25.0247 23.7594C25.6052 23.6735 26.1811 23.5759 26.7523 23.4587C27.3328 23.3377 27.8995 23.1971 28.4707 23.037C29.042 22.8769 29.6224 22.7011 30.1937 22.498C30.7603 22.3028 31.327 22.0802 31.8982 21.8459C32.4695 21.6077 33.0315 21.3538 33.5982 21.0844C34.1648 20.8071 34.7177 20.5103 35.2889 20.1979C35.6851 19.9792 35.9339 19.5965 35.9339 19.1942V12.0086C35.9339 11.9266 35.9201 11.8524 35.897 11.7782L38.8086 10.7355V22.4551L34.6992 28.1723C34.561 28.3676 34.4873 28.5824 34.4873 28.8011C34.4873 29.4572 35.1415 30 35.9247 30C35.9247 30 35.9247 30 35.9339 30H44.5442C44.5488 30 44.5534 30 44.5626 30C45.3458 30 46 29.4572 46 28.8011C46 28.5824 45.9263 28.3676 45.7835 28.1723L41.6787 22.4746V9.71231L42.2408 9.50924C42.7706 9.32179 43.1115 8.8844 43.1115 8.40797C43.1115 7.93153 42.7706 7.49414 42.2408 7.30669L22.1178 0.105441C21.9427 0.0390526 21.7538 0.00781097 21.5603 0ZM21.5557 2.51497L34.69 7.20906H21.6341C21.5834 7.20515 21.5327 7.20515 21.482 7.20906C19.5702 7.28716 19.713 9.69279 21.6341 9.60687H34.6578L21.5557 14.2971L5.07682 8.40016L21.5557 2.51497ZM10.0569 12.7896L20.9937 16.6988C21.353 16.8276 21.7584 16.8276 22.1178 16.6988L33.0592 12.7896V18.546C32.7551 18.7022 32.4557 18.8623 32.1562 19.0146C31.6449 19.2606 31.1289 19.4871 30.6175 19.7019C30.1062 19.9167 29.5948 20.108 29.0834 20.2877C28.5767 20.4634 28.0745 20.6235 27.5724 20.7641C27.0702 20.9047 26.5588 21.0219 26.0567 21.1273C25.5545 21.2328 25.0478 21.3226 24.5456 21.3929C24.0481 21.4632 23.5551 21.5061 23.0484 21.5413C22.5508 21.5764 22.0533 21.5959 21.5557 21.5959C21.0536 21.5959 20.556 21.5764 20.0631 21.5413C19.5609 21.5061 19.0496 21.4632 18.552 21.3929C18.0545 21.3226 17.5569 21.2328 17.0548 21.1273C16.5526 21.0219 16.0413 20.9047 15.5391 20.7641C15.037 20.6235 14.5348 20.4634 14.028 20.2877C13.5167 20.108 13.0053 19.9167 12.4939 19.7019C11.9826 19.4871 11.4666 19.2606 10.9552 19.0146C10.6604 18.8623 10.3563 18.7022 10.0569 18.546V12.7896ZM40.2368 25.1263L42.0058 27.6022H38.4677L40.2368 25.1263Z" fill="#E0E0E0"/>
</g>
</svg>
