<svg width="64" height="48" viewBox="0 0 64 48" fill="none" xmlns="http://www.w3.org/2000/svg">
<mask id="mask0_328_735" style="mask-type:luminance" maskUnits="userSpaceOnUse" x="0" y="3" width="46" height="39">
<path d="M0 3.51331H45.1524V41.1352H0V3.51331Z" fill="white"/>
</mask>
<g mask="url(#mask0_328_735)">
</g>
<path d="M32 42C29.9 42 27.9375 41.6062 26.1125 40.8187C24.2875 40.0312 22.7 38.9625 21.35 37.6125C20 36.2625 18.9375 34.6687 18.1625 32.8312C17.3875 30.9937 17 29.025 17 26.925C17 24.825 17.3875 22.8688 18.1625 21.0563C18.9375 19.2438 20 17.6625 21.35 16.3125C22.7 14.9625 24.2875 13.9062 26.1125 13.1438C27.9375 12.3813 29.9 12 32 12C34.1 12 36.0625 12.3813 37.8875 13.1438C39.7125 13.9062 41.3 14.9625 42.65 16.3125C44 17.6625 45.0625 19.2438 45.8375 21.0563C46.6125 22.8688 47 24.825 47 26.925C47 29.025 46.6125 30.9937 45.8375 32.8312C45.0625 34.6687 44 36.2625 42.65 37.6125C41.3 38.9625 39.7125 40.0312 37.8875 40.8187C36.0625 41.6062 34.1 42 32 42ZM32 39.825C32.875 38.925 33.6062 37.8937 34.1937 36.7312C34.7812 35.5687 35.2625 34.1875 35.6375 32.5875H28.4C28.75 34.0875 29.2188 35.4375 29.8063 36.6375C30.3938 37.8375 31.125 38.9 32 39.825ZM28.8125 39.375C28.1875 38.425 27.65 37.4 27.2 36.3C26.75 35.2 26.375 33.9625 26.075 32.5875H20.45C21.4 34.3625 22.5 35.7563 23.75 36.7688C25 37.7813 26.6875 38.65 28.8125 39.375ZM35.225 39.3375C37.025 38.7625 38.6438 37.9 40.0813 36.75C41.5188 35.6 42.675 34.2125 43.55 32.5875H37.9625C37.6375 33.9375 37.2562 35.1625 36.8187 36.2625C36.3813 37.3625 35.85 38.3875 35.225 39.3375ZM19.7 30.3375H25.6625C25.5875 29.6625 25.5437 29.0562 25.5312 28.5187C25.5188 27.9812 25.5125 27.45 25.5125 26.925C25.5125 26.3 25.525 25.7437 25.55 25.2562C25.575 24.7687 25.625 24.225 25.7 23.625H19.7C19.525 24.225 19.4062 24.7625 19.3438 25.2375C19.2812 25.7125 19.25 26.275 19.25 26.925C19.25 27.575 19.2812 28.1562 19.3438 28.6688C19.4062 29.1812 19.525 29.7375 19.7 30.3375ZM27.9875 30.3375H36.05C36.15 29.5625 36.2125 28.9312 36.2375 28.4437C36.2625 27.9562 36.275 27.45 36.275 26.925C36.275 26.425 36.2625 25.9438 36.2375 25.4813C36.2125 25.0188 36.15 24.4 36.05 23.625H27.9875C27.8875 24.4 27.825 25.0188 27.8 25.4813C27.775 25.9438 27.7625 26.425 27.7625 26.925C27.7625 27.45 27.775 27.9562 27.8 28.4437C27.825 28.9312 27.8875 29.5625 27.9875 30.3375ZM38.3 30.3375H44.3C44.475 29.7375 44.5938 29.1812 44.6562 28.6688C44.7188 28.1562 44.75 27.575 44.75 26.925C44.75 26.275 44.7188 25.7125 44.6562 25.2375C44.5938 24.7625 44.475 24.225 44.3 23.625H38.3375C38.4125 24.5 38.4625 25.1687 38.4875 25.6312C38.5125 26.0937 38.525 26.525 38.525 26.925C38.525 27.475 38.5063 27.9938 38.4688 28.4813C38.4312 28.9688 38.375 29.5875 38.3 30.3375ZM37.925 21.375H43.55C42.725 19.65 41.5938 18.2125 40.1562 17.0625C38.7188 15.9125 37.0625 15.1 35.1875 14.625C35.8125 15.55 36.3438 16.55 36.7812 17.625C37.2188 18.7 37.6 19.95 37.925 21.375ZM28.4 21.375H35.675C35.4 20.05 34.9375 18.7688 34.2875 17.5312C33.6375 16.2937 32.875 15.2 32 14.25C31.2 14.925 30.525 15.8125 29.975 16.9125C29.425 18.0125 28.9 19.5 28.4 21.375ZM20.45 21.375H26.1125C26.3875 20.025 26.7375 18.8187 27.1625 17.7563C27.5875 16.6938 28.125 15.6625 28.775 14.6625C26.9 15.1375 25.2625 15.9375 23.8625 17.0625C22.4625 18.1875 21.325 19.625 20.45 21.375Z" fill="#6C6C6C"/>
</svg>
