<svg width="46" height="31" viewBox="0 0 46 31" fill="none" xmlns="http://www.w3.org/2000/svg">
<mask id="mask0_328_730" style="mask-type:luminance" maskUnits="userSpaceOnUse" x="0" y="0" width="46" height="31">
<path d="M0.0561523 0.680481H45.1987V30.4563H0.0561523V0.680481Z" fill="white"/>
</mask>
<g mask="url(#mask0_328_730)">
<path d="M24.8082 11.4489C24.1321 11.9632 23.1252 11.9632 22.4565 11.4489L10.9406 2.58836H36.3167L24.8082 11.4489ZM29.2984 12.2755L27.5787 13.8615L35.8023 20.5543H11.3595L19.1641 13.837L17.4004 12.2878L9.20621 19.348V4.15594L20.7883 13.0716C21.5746 13.6778 22.5814 14.0084 23.6323 14.0084C24.6759 14.0084 25.6827 13.6778 26.469 13.0716L38.0511 4.15594V19.4031L29.2984 12.2755ZM36.8165 0.408447H10.4408C8.37577 0.408447 6.7002 1.86581 6.7002 3.65995V19.4827C6.7002 21.2707 8.37577 22.7281 10.4408 22.7281H36.8165C38.8815 22.7281 40.5645 21.2707 40.5645 19.4827V3.65995C40.5645 1.86581 38.8815 0.408447 36.8165 0.408447Z" fill="#6C6C6C"/>
</g>
</svg>
